<svg width="18" height="17" fill="none" xmlns="http://www.w3.org/2000/svg"><path d="M5.698 8.5a2.833 2.833 0 1 1 5.667 0 2.833 2.833 0 0 1-5.667 0Zm-1.532 0a4.365 4.365 0 1 0 8.73.002 4.365 4.365 0 0 0-8.73-.002Zm7.883-4.537a1.02 1.02 0 1 0 2.04 0 1.02 1.02 0 0 0-2.04 0ZM5.096 15.42c-.829-.038-1.28-.176-1.578-.293a2.642 2.642 0 0 1-.978-.636 2.62 2.62 0 0 1-.636-.977c-.117-.3-.255-.75-.293-1.578-.04-.896-.049-1.166-.049-3.436s.009-2.538.05-3.435c.037-.828.176-1.278.292-1.578.154-.397.338-.68.636-.978.297-.298.58-.482.978-.636.3-.117.75-.255 1.578-.292.896-.042 1.166-.05 3.435-.05 2.268 0 2.538.01 3.435.05.829.037 1.278.176 1.578.292.397.154.68.339.978.636.298.297.482.58.636.978.117.3.255.75.293 1.578.04.897.049 1.166.049 3.435 0 2.27-.008 2.539-.05 3.436-.037.829-.176 1.279-.292 1.578-.154.397-.338.68-.636.977a2.64 2.64 0 0 1-.978.636c-.299.117-.75.255-1.578.293-.896.04-1.166.05-3.435.05-2.27 0-2.538-.01-3.435-.05ZM5.026.05c-.905.042-1.523.185-2.063.395a4.167 4.167 0 0 0-1.506.98 4.151 4.151 0 0 0-.98 1.507c-.21.54-.354 1.158-.395 2.063C.04 5.903.03 6.192.03 8.5c0 2.309.01 2.599.052 3.505.041.905.184 1.523.395 2.063.216.56.507 1.034.98 1.506.473.473.946.763 1.506.98.54.21 1.158.354 2.063.396.907.04 1.196.051 3.504.051 2.309 0 2.599-.01 3.505-.052.905-.04 1.523-.184 2.063-.394a4.18 4.18 0 0 0 1.506-.98c.473-.473.763-.948.98-1.507.21-.54.355-1.158.396-2.063.04-.907.05-1.196.05-3.504s-.01-2.598-.05-3.504c-.042-.905-.185-1.523-.395-2.064a4.18 4.18 0 0 0-.98-1.506A4.16 4.16 0 0 0 14.1.447c-.541-.21-1.16-.355-2.064-.396C11.13.011 10.84 0 8.531 0 6.223 0 5.933.01 5.026.051Z" fill="#000"/></svg>
